<svg width="96" height="96" viewBox="0 0 96 96" fill="none" xmlns="http://www.w3.org/2000/svg">
<circle cx="48" cy="48" r="48" fill="#FFDFE6"/>
<mask id="mask0_1_1401" style="mask-type:alpha" maskUnits="userSpaceOnUse" x="0" y="0" width="96" height="96">
<circle cx="48" cy="48" r="48" fill="#FFEADF"/>
</mask>
<g mask="url(#mask0_1_1401)">
<path d="M19.8071 70.756L16.7803 95.9996H-1.92856L-1.30837 91.8137C-1.08261 89.0601 -0.393084 86.4162 0.69152 83.9512C2.53016 79.8415 5.56756 76.4967 9.29611 74.2008V74.1943C9.48704 74.0724 9.67925 73.9686 9.87018 73.8521C12.867 72.1251 16.2585 71.0463 19.8071 70.756Z" fill="#186BE7"/>
<path d="M96.8257 95.9996H78.0639L74.8401 69.069C76.9693 69.2435 79.0498 69.7014 81.0152 70.4197C86.6921 72.4721 91.4633 76.6354 93.9566 82.2758C95.0412 84.723 95.725 87.3728 95.9565 90.127L96.8257 95.9996Z" fill="#186BE7"/>
<path d="M84.2608 72.1139L81.0621 96H12.1602L9.29631 74.2008V74.1944C9.48724 74.0725 9.67946 73.9686 9.87038 73.8522C14.1933 71.3031 24.0073 68.3705 31.0181 66.468C35.9644 65.1267 41.0669 64.4616 46.1935 64.4849L51.6446 64.5107C55.4505 64.5278 59.2426 64.9267 62.9702 65.6994C69.0021 66.9482 77.9518 68.9529 81.0137 70.42C82.1864 70.9702 83.27 71.5395 84.2608 72.1139Z" fill="#0D6EFD"/>
<path d="M63.3842 41.2078C63.3842 41.2078 64.9294 45.4446 58.0205 47.9066L58.5011 82.5343L38.0071 73.3482L39.8257 53.3316L47.6882 49.9526L49.563 46.566C49.563 46.566 52.2847 43.0544 52.6136 42.7087C52.9419 42.3627 55.8539 39.801 55.8539 39.801L62.1119 41.6893L63.3842 41.2078Z" fill="#FAB9C9"/>
<path d="M54.4916 51.4601C55.7772 46.3661 52.4556 46.5554 48.7287 48.077L47.6905 49.9524L40.395 53.0875L39.6223 55.8031L38.9011 64.4715C38.9008 64.4715 51.8651 61.8721 54.4916 51.4601Z" fill="#1B1E28"/>
<path d="M34.1496 38.3844C34.1496 38.3844 28.464 35.8076 30.461 29.9617C32.4577 24.1159 32.5074 24.1162 32.0929 21.3607C31.6779 18.6055 32.7376 11.7463 40.7853 13.6682C48.8335 15.5903 49.9233 15.798 54.0308 14.0826C58.1383 12.3672 63.8051 16.1102 62.9211 25.2073C62.1703 32.9395 60.5313 30.8009 62.089 34.942C63.6474 39.0827 62.7308 40.1176 60.0001 40.7704C53.6734 42.2823 50.6006 39.2675 50.6006 39.1252C50.6006 38.983 49.3528 35.8121 48.5729 35.3964C47.7931 34.9803 40.6708 33.0053 40.5153 33.213C40.3592 33.4207 38.0084 36.6825 38.0084 36.6825L34.1496 38.3844Z" fill="#1B1E28"/>
<path d="M30.9012 39.2423C33.212 39.3681 35.5553 39.2549 37.8703 39.2336C38.0512 39.232 38.0519 38.9501 37.8703 38.9518C35.5553 38.9701 33.2103 38.8956 30.9012 39.0608C30.7847 39.0685 30.7838 39.2369 30.9012 39.2423Z" fill="#1B1E28"/>
<path d="M34.1627 30.4045V48.2597C34.1627 48.2597 33.6048 56.7379 39.9692 57.0778C46.3336 57.4177 50.1712 57.1023 52.2366 54.8428C54.3013 52.5836 56.2447 48.5509 54.7863 37.8381C53.3292 27.1246 51.7992 25.3034 51.7992 25.3034L43.8555 22.8981L36.3484 24.2097L34.1627 30.4045Z" fill="#FAB9C9"/>
<path d="M34.1527 49.016C34.1917 51.1004 34.7732 56.8007 39.9692 57.0778C46.3336 57.4177 50.1712 57.1023 52.2366 54.8428C53.7736 53.1609 55.2417 50.494 55.2917 44.8224C55.2823 42.9786 55.1292 40.8332 54.7866 38.3141C54.587 36.8428 54.4093 35.5066 54.2506 34.2876C52.9777 26.7073 51.7996 25.3037 51.7996 25.3037L43.8558 22.8984L36.3487 24.2101L34.2637 30.1191L34.1627 30.8805V31.0624C34.1627 31.0624 34.5452 30.0788 36.1307 30.1336C37.7161 30.1881 37.5517 29.4409 39.41 27.3819C41.2689 25.3237 42.1797 27.9286 43.6481 29.1493C45.1165 30.37 47.1899 28.7484 49.5945 28.6755C52.0002 28.6023 51.5257 31.4814 51.071 32.2651C50.615 33.0485 50.196 34.1598 51.6544 34.6884C53.1115 35.2164 53.6211 35.4531 53.8043 39.0239C53.9859 42.5951 53.0206 45.1281 51.18 46.3298C49.3401 47.5328 45.4593 47.2593 42.7625 45.2007C40.066 43.1418 37.1411 45.1191 35.7301 45.7289C34.9848 46.0505 34.2617 45.6338 34.163 45.5729V48.2594V48.7351C34.1627 48.7357 34.1563 48.8392 34.1527 49.016Z" fill="#E5A0B1"/>
<path d="M39.6604 35.0293C39.3714 37.3217 39.0273 39.9102 39.3311 42.2048C39.4427 43.0479 39.9403 43.7 41.0784 43.4626C41.3693 43.4017 41.2455 43.0537 40.9549 43.1011C39.1666 43.3936 39.7819 39.6867 39.799 39.0358C39.8355 37.7003 39.9 36.3654 39.8855 35.0293C39.8839 34.9103 39.6742 34.9148 39.6604 35.0293Z" fill="#EAAABA"/>
<path d="M43.3921 41.0484C43.906 41.0484 44.3226 40.6318 44.3226 40.1179C44.3226 39.6041 43.906 39.1875 43.3921 39.1875C42.8783 39.1875 42.4617 39.6041 42.4617 40.1179C42.4617 40.6318 42.8783 41.0484 43.3921 41.0484Z" fill="#1B1E28"/>
<path d="M36.3275 41.0484C36.8414 41.0484 37.258 40.6318 37.258 40.1179C37.258 39.6041 36.8414 39.1875 36.3275 39.1875C35.8137 39.1875 35.3971 39.6041 35.3971 40.1179C35.3971 40.6318 35.8137 41.0484 36.3275 41.0484Z" fill="#1B1E28"/>
<path d="M34.6136 36.8763C35.1597 36.6567 35.6121 36.348 36.2162 36.2742C36.8838 36.1906 37.4188 36.3845 38.0368 36.5941C38.2932 36.6805 38.3938 36.3274 38.208 36.1887C37.2199 35.4511 35.1613 35.5708 34.4382 36.6476C34.366 36.7541 34.4875 36.9276 34.6136 36.8763Z" fill="#1B1E28"/>
<path d="M42.5813 36.5874C43.1544 36.3652 43.6063 36.1172 44.2481 36.1465C44.8899 36.1765 45.4126 36.4416 46.0041 36.651C46.2618 36.7425 46.3576 36.3852 46.1747 36.2456C45.2407 35.5322 43.1651 35.2477 42.4052 36.3588C42.3311 36.4655 42.4552 36.6361 42.5813 36.5874Z" fill="#1B1E28"/>
<path d="M48.1857 41.8953C48.5156 42.7067 47.889 43.7274 46.7853 44.1761C45.6817 44.6253 44.5203 44.3309 44.1907 43.5197C43.8608 42.7099 44.4881 41.6888 45.5917 41.2396C46.6947 40.7919 47.8567 41.0848 48.1857 41.8953Z" fill="#EAAABA"/>
<path d="M35.64 41.4183C35.1359 41.1922 34.615 41.1235 34.1609 41.1909V44.2957C34.2113 44.3222 34.2622 44.348 34.3154 44.3718C35.4245 44.8695 36.6214 44.6124 36.9868 43.7962C37.3525 42.9815 36.7491 41.9172 35.64 41.4183Z" fill="#EAAABA"/>
<path d="M38.9073 38.5736C39.0989 40.5616 38.0085 42.4892 36.0008 43.0185C33.7374 43.6151 31.435 42.0603 31.0854 39.7737C30.7578 37.6239 32.2484 35.6104 34.395 35.2818C36.621 34.9425 38.4713 36.4689 38.9108 38.603C38.9399 38.7414 39.1501 38.6823 39.1211 38.5453C38.6632 36.3212 36.6839 34.6767 34.3476 35.0457C32.0952 35.4018 30.5165 37.5487 30.8471 39.805C31.177 42.0571 33.3504 43.6513 35.5941 43.322C37.9336 42.9791 39.344 40.8412 39.126 38.573C39.1124 38.4353 38.8941 38.4343 38.9073 38.5736Z" fill="#1B1E28"/>
<path d="M48.9324 39.2799C48.8166 41.4291 47.2047 43.2471 44.9652 43.2471C42.8147 43.2471 40.9973 41.4291 40.9973 39.2799C40.9973 37.2774 42.5657 35.5626 44.5411 35.3569C46.9364 35.1089 48.8073 36.9414 48.9324 39.2799C48.9398 39.4196 49.1585 39.4205 49.1511 39.2799C49.0282 37.0059 47.3389 35.094 44.9652 35.094C42.6937 35.094 40.768 37.0007 40.779 39.2799C40.7896 41.4781 42.5441 43.3377 44.743 43.4529C47.2021 43.5822 49.0237 41.641 49.1511 39.2799C49.1588 39.139 48.9401 39.139 48.9324 39.2799Z" fill="#1B1E28"/>
<path d="M38.9373 39.0392C39.5375 39.1456 40.2577 39.1511 40.8618 39.0663C40.9463 39.0547 40.9463 38.9086 40.8618 38.8966C40.2577 38.8131 39.5388 38.8176 38.9373 38.924C38.8793 38.9337 38.8793 39.0285 38.9373 39.0392Z" fill="#1B1E28"/>
<path d="M48.8652 39.1129C51.1763 39.2384 53.5197 39.1252 55.8343 39.1042C56.0153 39.1026 56.0159 38.8204 55.8343 38.8217C53.5194 38.8404 51.1744 38.7659 48.8652 38.9307C48.7488 38.9391 48.7481 39.1065 48.8652 39.1129Z" fill="#1B1E28"/>
<path d="M63.3696 41.2077C61.6419 36.8041 55.024 39.8009 55.024 39.8009L54.4868 44.1081L57.7482 42.8628C57.8653 43.155 60.9059 43.2134 60.9059 43.2134L63.3696 41.2077Z" fill="#FAB9C9"/>
<path d="M57.593 40.0122C59.4071 39.7345 61.159 41.3238 60.9529 43.1776C60.9213 43.4692 60.4604 43.4724 60.4917 43.1776C60.661 41.6538 59.262 40.2199 57.7152 40.4563C57.425 40.5011 57.3002 40.0573 57.593 40.0122Z" fill="#E6A0B1"/>
<path d="M60.104 41.3654C59.3438 41.6976 58.7749 42.311 58.5266 43.1063C58.4395 43.3895 57.9944 43.2685 58.0831 42.9841C58.3627 42.083 59.0036 41.3464 59.8714 40.9674C60.1414 40.85 60.3762 41.2467 60.104 41.3654Z" fill="#E6A0B1"/>
<path d="M36.8139 15.4448C34.1526 17.2438 33.6078 20.6646 34.8366 23.505C34.8763 23.5972 35.0104 23.5172 34.9714 23.4263C33.7784 20.6701 34.3032 17.3295 36.8926 15.5793C36.9758 15.5232 36.8971 15.3877 36.8139 15.4448Z" fill="white"/>
<path d="M32.1832 34.6557C32.4061 35.1056 32.6102 35.5603 32.885 35.9815C32.9398 36.0653 33.0753 35.9873 33.0198 35.9028C32.7444 35.4813 32.5405 35.0265 32.318 34.5773C32.2735 34.4873 32.1387 34.5663 32.1832 34.6557Z" fill="white"/>
<path d="M51.8768 29.678C51.8768 29.8515 51.8768 30.0243 51.8768 30.1978C51.8768 30.2981 52.0329 30.2981 52.0329 30.1978C52.0329 30.0243 52.0329 29.8515 52.0329 29.678C52.0329 29.5777 51.8768 29.5777 51.8768 29.678Z" fill="white"/>
<path d="M51.6762 31.9261C51.6291 31.99 51.6194 32.0703 51.5724 32.1341C51.5124 32.2151 51.6478 32.2925 51.7072 32.2128C51.7549 32.149 51.7646 32.0687 51.811 32.0048C51.8707 31.9239 51.7352 31.8458 51.6762 31.9261Z" fill="white"/>
<path d="M60.709 31.6017C60.5251 33.3532 60.5603 34.7552 61.2317 36.4048C61.2695 36.4967 61.4201 36.4571 61.3824 36.3639C60.7222 34.7413 60.6844 33.3184 60.8651 31.6017C60.876 31.5014 60.7193 31.5023 60.709 31.6017Z" fill="white"/>
<path d="M39.969 57.0778C46.3334 57.4178 50.171 57.1023 52.2364 54.8428C54.3011 52.5836 56.2445 48.551 54.7861 37.8381C53.329 27.1246 53.0314 23.3097 53.0314 23.3097L47.4945 20.3071L35.3997 21.0482L34.1625 30.4042V30.5861C34.1625 30.5861 34.545 29.6028 36.1305 29.657C37.716 29.7118 37.5515 28.9646 39.4098 26.906C41.2687 24.8477 42.1795 27.4526 43.6479 28.6733C45.1163 29.8937 47.1897 28.2724 49.5943 28.1996C52 28.1264 51.5255 31.0051 51.0708 31.7888C50.6148 32.5725 50.1958 33.6835 51.6542 34.2121C53.1113 34.7404 53.6209 34.9768 53.8041 38.5476C53.9857 42.1188 53.0204 44.6518 51.1798 45.8538C49.3399 47.0565 45.4591 46.7833 42.7623 44.7244C40.0658 42.6658 37.1409 44.6431 35.7299 45.253C34.9846 45.5742 34.2615 45.1575 34.1629 45.0969V48.2594C34.1625 48.2597 33.6046 56.7379 39.969 57.0778Z" fill="#1B1E28"/>
<path d="M33.4173 25.1035C33.4741 26.7406 32.4756 28.0696 31.8579 29.5177C31.4213 30.541 31.359 31.6505 31.39 32.7451C31.3926 32.8454 31.5487 32.846 31.5458 32.7451C31.4987 31.0796 31.8792 29.7786 32.6062 28.2941C33.1303 27.2247 33.6153 26.3223 33.5731 25.1035C33.5698 25.0032 33.4137 25.0029 33.4173 25.1035Z" fill="white"/>
<path d="M51.8299 17.5889C53.6672 17.8698 55.5452 17.4818 57.3548 17.9956C60.8747 18.9938 60.0546 24.22 58.9574 26.676C58.9164 26.7669 59.0512 26.8459 59.0915 26.7543C60.1874 24.3023 60.6293 21.1188 58.9158 18.8335C57.4064 16.821 53.9678 17.7589 51.8715 17.4386C51.7734 17.4235 51.7306 17.5737 51.8299 17.5889Z" fill="white"/>
<path d="M42.9324 25.8313C43.0898 30.5373 48.9895 25.3091 51.0136 27.6541C51.079 27.7299 51.1893 27.6196 51.1239 27.5435C49.0566 25.1479 43.2362 30.2487 43.0888 25.8309C43.0856 25.731 42.9295 25.7306 42.9324 25.8313Z" fill="white"/>
<path d="M39.7367 57.1911C42.3484 57.2082 45.0007 57.5249 47.6005 57.1443C50.3999 56.7344 52.304 55.6459 53.7621 53.2142C53.8137 53.1278 53.6789 53.0497 53.6273 53.1358C52.0273 55.8027 49.8049 56.7863 46.7771 57.0775C44.4376 57.3023 42.0788 57.0501 39.7367 57.035C39.6367 57.0343 39.6367 57.1904 39.7367 57.1911Z" fill="white"/>
<path d="M39.3619 47.0698C40.017 48.5311 42.7219 47.9428 42.7244 46.347C42.7244 46.1767 42.4906 46.1135 42.4045 46.2606C42.0997 46.7801 41.9001 47.2684 41.2493 47.4361C40.5678 47.6122 40.0702 47.2517 39.5467 46.8843C39.4235 46.7982 39.3129 46.9601 39.3619 47.0698Z" fill="white"/>
<path d="M38.5415 68.7211C44.2112 75.3606 50.3957 74.4944 56.9165 68.7211L56.9172 95.9995H38.5418V68.7211H38.5415Z" fill="#E3EEF1"/>
<path d="M39.0389 61.8306L26.1539 66.2529C32.09 76.4387 35.231 86.3247 35.2039 95.8723H40.963C43.9136 85.571 42.9045 74.117 39.0389 61.8306Z" fill="#186BE7"/>
<path d="M58.0679 61.8306L70.9532 66.2529C65.0164 76.4387 61.8758 86.3247 61.9026 95.8723H56.1435C53.1938 85.571 54.2026 74.117 58.0679 61.8306Z" fill="#186BE7"/>
</g>
</svg>
