<svg width="14" height="14" viewBox="0 0 14 14" fill="none" xmlns="http://www.w3.org/2000/svg">
<path d="M6.99999 3.22246L6.5974 3.59719C6.70144 3.70897 6.84728 3.77246 6.99999 3.77246C7.1527 3.77246 7.29854 3.70897 7.40258 3.59719L6.99999 3.22246ZM7.44627 2.743L7.04368 2.36827L7.04367 2.36827L7.44627 2.743ZM6.55371 2.743L6.9563 2.36827L6.55371 2.743ZM2.09093 7.53763L1.68834 7.91236L2.09093 7.53763ZM6.10743 11.8528L6.51002 11.4781L6.10743 11.8528ZM7.89255 11.8528L7.48995 11.4781L7.89255 11.8528ZM11.909 7.53763L11.5065 7.1629L11.909 7.53763ZM11.909 2.743L12.3116 2.36827L11.909 2.743ZM2.09093 2.743L1.68834 2.36827L2.09093 2.743ZM7.40258 3.59719L7.84886 3.11773L7.04367 2.36827L6.5974 2.84774L7.40258 3.59719ZM6.15112 3.11773L6.5974 3.59719L7.40258 2.84774L6.9563 2.36827L6.15112 3.11773ZM1.68834 7.91236L5.70484 12.2275L6.51002 11.4781L2.49352 7.1629L1.68834 7.91236ZM8.29514 12.2275L12.3116 7.91236L11.5065 7.1629L7.48995 11.4781L8.29514 12.2275ZM11.5065 3.11773C12.5423 4.23057 12.5423 6.05006 11.5065 7.1629L12.3116 7.91236C13.7406 6.3772 13.7406 3.90343 12.3116 2.36827L11.5065 3.11773ZM12.3116 2.36827C10.8618 0.810576 8.49356 0.810575 7.04368 2.36827L7.84886 3.11773C8.8637 2.02742 10.4916 2.02742 11.5065 3.11773L12.3116 2.36827ZM2.49352 3.11773C3.50836 2.02742 5.13628 2.02742 6.15112 3.11773L6.9563 2.36827C5.50642 0.810576 3.13822 0.810575 1.68834 2.36827L2.49352 3.11773ZM5.70484 12.2275C6.41531 12.9908 7.58467 12.9908 8.29514 12.2275L7.48995 11.4781C7.21453 11.774 6.78545 11.774 6.51002 11.4781L5.70484 12.2275ZM1.68834 2.36827C0.25943 3.90343 0.259429 6.3772 1.68834 7.91236L2.49352 7.1629C1.4577 6.05006 1.4577 4.23057 2.49352 3.11773L1.68834 2.36827Z" fill="white"/>
</svg>
