<svg width="9" height="5" viewBox="0 0 9 5" fill="none" xmlns="http://www.w3.org/2000/svg">
<path d="M4.33235 3.70576C4.37015 3.75738 4.43029 3.78788 4.49426 3.78788C4.55824 3.78788 4.61838 3.75738 4.65617 3.70576L7.21976 0.204612C7.31393 0.0760026 7.46378 4.76837e-07 7.62318 4.76837e-07H8.48764C8.90088 4.76837e-07 9.13573 0.472826 8.88605 0.802104L5.85297 4.8021C5.75844 4.92677 5.61101 5 5.45456 5H3.53397C3.37751 5 3.23008 4.92677 3.13555 4.8021L0.102474 0.802104C-0.147208 0.472825 0.0876494 4.76837e-07 0.500887 4.76837e-07H1.36535C1.52475 4.76837e-07 1.67459 0.0760026 1.76876 0.204612L4.33235 3.70576Z" fill="#1B1E28"/>
</svg>
